<?xml version="1.0" standalone="no"?>
<!DOCTYPE svg PUBLIC "-//W3C//DTD SVG 20010904//EN"
 "http://www.w3.org/TR/2001/REC-SVG-20010904/DTD/svg10.dtd">
<svg version="1.0" xmlns="http://www.w3.org/2000/svg"
 width="300.000000pt" height="272.000000pt" viewBox="0 0 300.000000 272.000000"
 preserveAspectRatio="xMidYMid meet">
<metadata>
Created by potrace 1.10, written by Peter Selinger 2001-2011
</metadata>
<g transform="translate(0.000000,272.000000) scale(0.100000,-0.100000)"
fill="#000000" stroke="none">
<path d="M1512 2195 c-156 -29 -301 -89 -410 -170 -127 -93 -257 -255 -318
-391 -68 -154 -87 -344 -45 -456 26 -68 96 -152 106 -127 4 11 -4 27 -21 45
-55 59 -69 107 -68 244 0 109 3 135 26 201 42 120 111 232 212 345 112 125
289 225 476 269 86 20 268 20 345 0 166 -43 339 -165 423 -298 87 -139 117
-265 110 -458 -9 -223 -84 -409 -226 -563 l-43 -47 -25 20 c-14 11 -34 32 -46
46 l-20 26 31 58 c30 56 83 239 95 331 8 56 -15 106 -61 133 -41 23 -94 11
-142 -35 -54 -50 -75 -109 -75 -203 1 -87 23 -155 73 -230 15 -22 30 -45 34
-52 19 -30 -135 -154 -260 -209 -75 -34 -180 -39 -212 -10 l-21 19 30 34 c43
48 63 101 55 143 -8 40 -19 50 -57 50 -30 0 -74 -45 -84 -87 -4 -13 -4 -49 0
-78 l6 -53 -73 -30 c-111 -47 -214 -62 -413 -62 -179 0 -207 7 -141 35 47 19
190 45 256 45 38 1 63 6 76 18 32 26 75 94 75 118 0 12 7 27 15 34 25 21 19
84 -11 120 -15 17 -24 33 -22 35 3 3 33 8 69 12 119 12 285 108 360 210 20 26
54 80 77 118 59 101 86 135 140 172 58 40 158 73 222 73 64 0 171 -34 205 -66
28 -26 55 -26 55 0 0 37 -156 96 -254 96 -73 0 -164 -25 -229 -64 -60 -34
-123 -107 -176 -202 -75 -133 -154 -210 -274 -264 -73 -33 -219 -63 -322 -65
-109 -3 -171 -36 -249 -134 -26 -32 -59 -64 -74 -72 -45 -22 -62 -41 -62 -69
0 -20 -8 -30 -32 -41 -40 -18 -55 -57 -36 -96 17 -35 61 -52 89 -34 17 10 27
10 57 -5 31 -14 60 -16 231 -11 214 6 293 20 402 74 l57 29 28 -23 c96 -76
316 -6 482 153 25 24 48 44 51 44 9 -1 75 -69 70 -73 -2 -2 -46 -27 -97 -56
-94 -54 -118 -78 -107 -110 9 -28 49 -41 128 -41 97 1 150 24 167 75 11 33 10
41 -12 84 l-25 47 61 65 c131 138 226 397 226 615 0 40 -7 109 -16 155 -31
168 -101 297 -219 407 -173 161 -408 229 -643 187z m548 -842 c19 -24 21 -36
16 -88 -10 -110 -87 -350 -111 -350 -6 0 -28 35 -50 78 -33 67 -40 91 -43 154
-5 93 14 148 69 197 49 45 88 48 119 9z m-1064 -393 c-42 -51 -43 -100 -5
-229 7 -22 -258 -68 -278 -47 -4 3 1 20 10 35 9 16 17 38 17 49 0 12 11 33 25
49 110 124 133 145 170 158 22 8 51 14 63 15 l24 0 -26 -30z m161 -6 c17 -23
17 -86 -1 -129 -19 -46 -75 -105 -98 -105 -22 0 -44 45 -54 109 -9 55 2 89 38
123 24 23 37 27 66 24 20 -2 41 -12 49 -22z m343 -109 c0 -41 -18 -81 -48
-108 -20 -19 -21 -18 -27 16 -8 42 9 103 33 117 31 18 42 11 42 -25z m597
-136 c20 -38 16 -76 -9 -93 -30 -22 -208 -23 -208 -2 0 7 6 18 13 24 26 22
172 101 182 98 6 -1 16 -13 22 -27z m-1414 -38 c25 -26 27 -31 15 -50 -21 -34
-87 -16 -88 24 0 13 29 55 38 55 4 0 20 -13 35 -29z"/>
<path d="M929 879 c0 -8 -2 -27 -4 -42 -2 -15 2 -44 10 -65 13 -35 13 -34 8
38 -5 69 -12 103 -14 69z"/>
<path d="M850 830 c0 -25 4 -31 18 -28 11 2 17 12 17 28 0 16 -6 26 -17 28
-14 3 -18 -3 -18 -28z"/>
<path d="M1100 913 c0 -45 12 -103 20 -98 5 3 6 84 1 118 -3 20 -21 3 -21 -20z"/>
<path d="M1887 2103 c-9 -16 9 -42 98 -138 126 -137 169 -195 212 -286 37 -79
63 -100 38 -30 -36 102 -95 188 -228 328 -45 47 -89 97 -98 110 -9 14 -19 21
-22 16z"/>
<path d="M2250 1483 c0 -6 -3 -20 -6 -30 -5 -15 -4 -16 6 -3 9 12 10 -4 6 -70
-8 -134 -8 -137 -107 -332 -54 -107 -79 -167 -78 -190 0 -32 1 -33 11 -8 6 14
45 92 86 174 41 82 83 174 93 204 24 70 27 218 4 248 -8 10 -15 14 -15 7z"/>
<path d="M1770 1421 c8 -28 6 -34 -28 -90 -25 -42 22 -15 51 29 18 28 15 69
-5 82 -22 14 -27 9 -18 -21z"/>
<path d="M1740 1297 c0 -2 9 -14 20 -27 11 -13 20 -33 20 -46 0 -28 -48 -85
-104 -123 -47 -33 -191 -81 -240 -81 -49 0 -126 -12 -126 -19 0 -4 45 -7 100
-7 55 1 100 4 100 9 0 4 9 7 19 7 11 0 22 4 25 9 3 4 21 11 39 14 46 7 130 60
171 108 36 42 51 105 31 132 -9 13 -55 33 -55 24z"/>
<path d="M1280 689 c-19 -5 -48 -11 -65 -14 -44 -8 -193 -54 -175 -54 8 -1 51
8 95 18 44 10 106 24 138 31 31 6 57 16 57 21 0 10 -2 10 -50 -2z"/>
</g>
</svg>
