<?xml version="1.0" standalone="no"?>
<!DOCTYPE svg PUBLIC "-//W3C//DTD SVG 20010904//EN"
 "http://www.w3.org/TR/2001/REC-SVG-20010904/DTD/svg10.dtd">
<svg version="1.0" xmlns="http://www.w3.org/2000/svg"
 width="300.000000pt" height="280.000000pt" viewBox="0 0 300.000000 280.000000"
 preserveAspectRatio="xMidYMid meet">
<metadata>
Created by potrace 1.10, written by Peter Selinger 2001-2011
</metadata>
<g transform="translate(0.000000,280.000000) scale(0.100000,-0.100000)"
fill="#000000" stroke="none">
<path d="M1555 2661 c-76 -15 -125 -99 -133 -223 -2 -43 -8 -78 -12 -78 -4 0
-40 47 -80 104 -39 58 -83 112 -98 122 -78 51 -232 -9 -263 -104 l-11 -34 -19
31 c-27 44 -63 41 -88 -7 -21 -39 -51 -165 -51 -212 0 -25 5 -65 11 -90 21
-88 28 -204 17 -283 -11 -88 -2 -112 40 -104 23 4 23 4 15 -47 -12 -73 -8
-218 6 -244 7 -13 16 -71 21 -130 5 -59 12 -117 16 -128 3 -13 -3 -38 -15 -63
-17 -32 -35 -48 -80 -70 l-59 -30 -7 -58 c-4 -32 -9 -62 -12 -66 -3 -5 -23 8
-44 29 l-39 38 0 126 c0 162 31 393 65 490 18 52 29 108 34 185 12 159 9 170
-54 212 -68 44 -116 51 -176 24 -56 -25 -83 -54 -76 -80 3 -11 1 -38 -4 -58
-5 -21 -15 -124 -24 -229 -8 -105 -22 -251 -31 -325 -8 -74 -12 -154 -9 -179
15 -101 85 -442 105 -506 25 -84 27 -87 68 -108 30 -16 36 -16 57 -2 12 8 32
35 44 59 20 41 21 52 12 163 -4 65 -7 121 -5 123 3 3 19 -10 37 -27 34 -33 77
-42 94 -19 6 6 16 49 24 95 10 63 18 87 33 98 19 13 21 11 31 -31 14 -52 72
-127 123 -157 35 -20 39 -28 91 -187 73 -220 123 -319 204 -395 77 -73 97 -81
223 -96 108 -13 187 -5 244 25 60 31 146 167 207 330 90 237 141 508 117 624
-5 24 -3 32 5 27 7 -5 11 5 11 31 l1 38 34 -40 c19 -22 35 -35 35 -29 0 23
-24 80 -42 101 -16 17 -19 30 -13 61 8 52 -12 275 -35 387 -28 132 -70 266
-92 295 -44 57 -103 112 -141 132 -23 11 -47 27 -55 34 -7 8 -21 14 -30 14
-18 1 -133 39 -118 40 5 0 3 6 -3 13 -8 11 -6 38 10 108 31 145 36 181 27 226
-9 40 -11 42 -59 52 -27 6 -51 10 -52 10 -1 -1 -16 -4 -32 -8z m25 -144 c0
-50 -4 -107 -9 -125 -6 -18 -7 -43 -2 -55 4 -12 6 -30 3 -40 -3 -16 -10 -17
-45 -12 -23 4 -43 8 -43 9 -6 7 29 221 41 251 40 94 55 86 55 -28z m76 13 c-7
-63 -27 -140 -36 -140 -4 0 -4 18 0 40 4 22 6 63 3 92 -5 67 1 85 23 67 11 -9
14 -25 10 -59z m-453 -22 c19 -24 52 -70 75 -103 22 -33 59 -78 81 -100 l41
-39 -92 -28 c-88 -25 -96 -31 -151 -88 -32 -34 -60 -60 -62 -58 -3 2 -9 47
-14 99 -5 51 -17 130 -27 174 -28 131 -5 183 83 185 25 0 38 -8 66 -42z m-273
-67 c18 -15 29 -17 43 -9 24 13 26 11 42 -59 18 -73 18 -86 3 -77 -9 6 -9 3 1
-9 14 -18 26 -127 13 -127 -7 0 -25 58 -39 123 -3 15 -9 27 -13 27 -5 0 -11
13 -15 28 -9 42 -53 85 -80 79 -16 -3 -22 0 -18 10 3 7 12 13 20 13 8 0 11 5
8 10 -10 16 8 11 35 -9z m4 -127 c14 -38 37 -110 51 -159 13 -48 31 -95 39
-103 13 -14 10 -21 -34 -69 -31 -34 -54 -72 -65 -105 -18 -55 -35 -83 -35 -57
0 7 5 53 11 101 9 75 8 101 -10 199 -12 62 -21 131 -21 152 0 49 20 131 30
120 4 -4 19 -40 34 -79z m516 1 c0 -24 -5 -35 -15 -35 -8 0 -15 6 -15 14 0 8
-7 16 -15 20 -8 3 -15 10 -15 15 0 8 10 12 53 20 4 0 7 -15 7 -34z m170 -53
c0 -12 15 -26 40 -38 22 -10 40 -23 40 -27 0 -5 5 -5 12 -1 6 4 17 -1 25 -11
8 -12 13 -14 13 -6 0 10 6 9 25 -3 13 -9 31 -16 40 -16 8 0 15 -4 15 -10 0 -5
5 -10 10 -10 30 0 110 -75 140 -131 l19 -36 -30 -1 c-22 0 -37 8 -61 39 -18
21 -51 51 -73 66 -22 16 -43 32 -47 37 -3 5 -14 11 -24 12 -9 2 -20 7 -23 12
-3 5 -25 19 -49 31 -23 12 -40 26 -37 32 4 5 3 9 -2 8 -22 -4 -43 2 -38 11 3
6 -1 10 -10 10 -21 0 -31 30 -14 41 21 13 29 11 29 -9z m-83 -36 c4 -7 28 -24
53 -38 25 -14 71 -41 102 -61 31 -21 60 -37 63 -37 9 0 31 -19 116 -99 61 -58
82 -72 91 -63 21 21 27 14 47 -55 30 -102 40 -154 55 -313 44 -453 -96 -1077
-287 -1278 -27 -28 -104 -62 -141 -62 -16 0 -14 189 2 217 41 72 -19 155 -93
127 -22 -9 -46 -71 -39 -103 12 -54 16 -61 33 -61 14 0 20 -11 25 -52 3 -29 6
-69 6 -89 l0 -36 -57 9 c-147 23 -245 150 -351 458 -22 63 -43 122 -47 131 -5
13 2 18 30 23 52 10 110 72 123 130 11 52 1 112 -25 154 -41 66 -120 131 -143
117 -6 -4 -37 -8 -69 -10 -71 -4 -70 -6 -78 120 -3 50 -14 119 -24 154 -21 71
-24 150 -9 234 20 106 44 143 187 288 124 126 138 137 186 148 29 7 79 23 112
36 68 27 120 31 132 11z m-880 -232 c24 -15 48 -37 53 -49 12 -32 -8 -239 -30
-304 -63 -191 -82 -418 -66 -791 6 -132 5 -193 -3 -214 -8 -20 -15 -26 -22
-19 -17 17 -66 211 -104 416 l-37 198 16 145 c9 80 21 221 26 312 9 161 24
278 38 298 8 12 52 32 70 33 7 1 34 -11 59 -25z m459 -830 c52 -26 104 -110
104 -172 0 -60 -33 -92 -92 -92 -43 1 -43 1 -70 60 -15 33 -22 60 -17 60 6 0
7 5 4 10 -3 6 -1 10 5 10 7 0 10 -6 7 -12 -5 -15 20 -69 37 -80 16 -11 36 12
36 41 0 32 -32 86 -58 100 -15 8 -23 7 -33 -5 -11 -14 -16 -9 -36 36 -13 29
-23 57 -23 63 0 15 92 3 136 -19z m-146 -76 c0 -7 11 -40 25 -72 13 -33 23
-62 20 -64 -8 -8 -65 64 -76 97 -9 27 -9 35 2 42 20 12 29 11 29 -3z m630
-584 c0 -8 4 -13 10 -9 13 8 -11 -58 -24 -67 -6 -4 -15 -3 -19 1 -12 12 -27
82 -17 76 5 -3 11 -1 15 5 10 16 35 12 35 -6z"/>
<path d="M1781 1966 c-8 -10 -7 -21 5 -44 30 -61 29 -415 -3 -552 -4 -19 -3
-22 6 -14 13 12 41 142 48 227 3 31 9 57 14 57 15 0 3 -229 -15 -299 -10 -35
-15 -65 -13 -67 13 -13 37 13 42 44 3 21 11 46 17 56 14 26 22 395 10 466 -8
51 -10 53 -20 30 -10 -24 -11 -24 -11 10 -1 40 -34 100 -55 100 -7 0 -19 -6
-25 -14z"/>
<path d="M1934 1894 c17 -69 17 -185 2 -304 -9 -69 -19 -135 -23 -147 -7 -31
22 -31 31 0 60 197 74 461 26 462 -8 0 -21 4 -29 9 -11 7 -13 3 -7 -20z"/>
<path d="M1480 1377 c-84 -49 -95 -58 -119 -104 -24 -49 -25 -70 -6 -177 21
-119 67 -155 221 -171 59 -6 62 -6 87 24 52 62 93 223 80 317 -5 41 -14 57
-53 97 -45 45 -50 47 -101 47 -42 -1 -66 -8 -109 -33z m149 -13 c9 -9 -6 -11
-43 -6 -27 3 -34 7 -25 13 13 8 58 4 68 -7z m-69 -34 c16 0 41 -11 57 -24 27
-23 28 -29 30 -118 3 -171 -19 -218 -100 -218 -39 0 -40 1 -21 15 15 9 20 23
18 41 -3 35 -16 46 -45 42 -20 -2 -23 -8 -21 -33 2 -16 8 -35 14 -42 16 -20
-6 -16 -32 5 -24 19 -50 110 -50 176 0 74 20 116 69 147 25 15 48 24 49 19 2
-6 17 -10 32 -10z"/>
<path d="M2135 2489 c-37 -22 -65 -52 -65 -72 0 -10 11 -56 25 -101 13 -44 35
-148 49 -231 14 -82 33 -188 42 -235 12 -65 15 -134 13 -290 -1 -113 -3 -230
-3 -260 0 -30 3 -68 8 -85 6 -26 9 -27 17 -12 6 9 7 22 3 29 -5 7 -2 8 7 3 36
-21 40 -27 23 -40 -11 -8 -19 -32 -22 -69 -3 -37 -9 -56 -18 -56 -16 0 -44 28
-44 44 0 7 -12 23 -26 37 -24 22 -26 22 -21 4 3 -11 11 -40 18 -65 16 -58 24
-68 52 -63 19 4 24 -2 34 -40 7 -25 18 -47 26 -50 8 -3 42 4 75 15 52 17 63
24 67 46 3 15 17 70 30 122 37 142 43 176 60 326 19 171 18 313 -6 514 -39
332 -86 472 -173 517 -39 20 -145 27 -171 12z m96 -50 c104 -35 146 -146 190
-495 16 -132 20 -211 17 -361 -2 -105 -6 -189 -10 -186 -5 2 -9 -8 -9 -24 l-1
-28 -7 30 c-4 17 -4 34 1 40 12 14 10 63 -17 332 -38 377 -77 543 -132 551
-25 4 -41 -31 -24 -52 48 -58 130 -624 131 -903 0 -125 1 -123 -65 -98 l-40
16 -1 262 0 262 -42 215 c-48 245 -69 338 -89 394 -11 32 -11 41 -1 48 18 11
59 10 99 -3z m126 -1263 c1 -1 -5 -28 -13 -61 -7 -33 -14 -75 -14 -92 0 -18
-4 -33 -10 -33 -5 0 -13 0 -17 0 -10 -1 -32 89 -33 132 0 59 6 67 48 61 20 -3
38 -6 39 -7z"/>
</g>
</svg>
